<?xml version="1.0" encoding="UTF-8"?>
<!DOCTYPE svg PUBLIC "-//W3C//DTD SVG 1.1//EN" "http://www.w3.org/Graphics/SVG/1.1/DTD/svg11.dtd">
<!-- Creator: CorelDRAW 2018 -->
<svg xmlns="http://www.w3.org/2000/svg" xml:space="preserve" width="70.2732mm" height="35.9832mm" version="1.1" style="shape-rendering:geometricPrecision; text-rendering:geometricPrecision; image-rendering:optimizeQuality; fill-rule:evenodd; clip-rule:evenodd"
viewBox="0 0 7027.32 3598.32"
 xmlns:xlink="http://www.w3.org/1999/xlink">
 <defs>
  <style type="text/css">
   <![CDATA[
    .fil0 {fill:#C5D30D;fill-rule:nonzero}
    .fil1 {fill:white;fill-rule:nonzero}
   ]]>
  </style>
 </defs>
 <g id="Layer_x0020_1">
  <metadata id="CorelCorpID_0Corel-Layer"/>
  <path class="fil0" d="M-11642.84 -5730.22c45.77,29.35 61.53,84.73 61.37,179.43l0 -179.43 -61.37 0z"/>
  <path class="fil1" d="M-0 3105.25l144.23 0 0 -422.25 321.66 422.25 124.3 0 0 -664.21 -144.22 0 0 408.96 -311.23 -408.96 -134.74 0 0 664.21zm692.67 0l148.97 0 60.73 -148.97 280.87 0 60.73 148.97 152.76 0 -284.66 -668.95 -134.74 0 -284.66 668.95zm261.89 -278.02l88.25 -215.39 88.24 215.39 -176.49 0zm613.91 278.02l146.13 0 0 -529.47 202.11 0 0 -134.74 -550.35 0 0 134.74 202.11 0 0 529.47zm737.28 10.44c178.39,0 291.3,-98.68 291.3,-299.84l0 -374.81 -146.13 0 0 380.5c0,105.32 -54.08,159.41 -143.28,159.41 -89.19,0 -143.27,-55.98 -143.27,-164.16l0 -375.75 -146.13 0 0 379.55c0,195.47 109.12,295.1 287.51,295.1zm440.27 -10.44l146.13 0 0 -212.55 114.81 0 142.33 212.55 170.8 0 -162.26 -237.22c84.45,-31.31 142.33,-98.68 142.33,-205.9l0 -1.9c0,-62.62 -19.92,-114.81 -56.93,-151.82 -43.65,-43.65 -109.12,-67.37 -193.57,-67.37l-303.64 0 0 664.21zm146.13 -341.59l0 -190.73 145.18 0c71.16,0 114.81,32.27 114.81,94.89l0 1.9c0,55.98 -40.8,93.94 -111.97,93.94l-148.02 0zm539.9 341.59l505.75 0 0 -130 -360.57 0 0 -139.48 313.13 0 0 -129.99 -313.13 0 0 -134.74 355.83 0 0 -130 -501.01 0 0 664.21zm635.75 0l315.97 0c149.93,0 248.61,-60.73 248.61,-182.18l0 -1.9c0,-89.19 -47.45,-133.79 -124.3,-163.21 47.44,-26.56 87.29,-68.31 87.29,-143.28l0 -1.89c0,-45.55 -15.18,-82.56 -45.54,-112.92 -37.96,-37.95 -97.74,-58.83 -173.65,-58.83l-308.38 0 0 664.21zm142.33 -395.68l0 -140.43 144.23 0c61.68,0 95.84,24.67 95.84,68.32l0 1.89c0,49.35 -40.81,70.22 -105.33,70.22l-134.74 0zm0 267.58l0 -146.12 168.9 0c74.96,0 108.17,27.51 108.17,72.11l0 1.9c0,49.34 -38.9,72.11 -103.43,72.11l-173.64 0zm542.75 128.1l477.29 0 0 -132.84 -331.16 0 0 -531.37 -146.13 0 0 664.21zm872.01 11.39c204.96,0 353.93,-154.67 353.93,-343.49l0 -1.9c0,-188.83 -147.07,-341.6 -352.03,-341.6 -204.95,0 -353.93,154.67 -353.93,343.5l0 1.89c0,188.83 147.08,341.6 352.03,341.6zm1.9 -134.74c-117.66,0 -201.16,-94.89 -201.16,-208.75l0 -1.9c0,-113.87 81.61,-206.86 199.26,-206.86 117.66,0 201.17,94.89 201.17,208.76l0 1.89c0,113.87 -81.61,206.86 -199.27,206.86zm619.61 128.1l127.15 0 149.92 -434.59 149.92 434.59 127.15 0 226.78 -668.96 -152.77 0 -137.58 449.77 -148.98 -451.67 -125.25 0 -148.97 451.67 -137.59 -449.77 -156.56 0 226.78 668.96z"/>
  <path class="fil1" d="M1059.65 3596.01l192.34 0 0 -40.38 -147.19 0 0 -69.01 128.84 0 0 -40.37 -128.84 0 0 -66.81 145.36 0 0 -40.38 -190.51 0 0 256.95zm245.94 0l44.41 0 0 -183.54 80.39 120.4 1.47 0 81.12 -121.13 0 184.27 45.15 0 0 -256.95 -48.08 0 -78.19 121.5 -78.19 -121.5 -48.08 0 0 256.95zm318.62 0l118.93 0c57.26,0 95.07,-24.59 95.07,-70.48l0 -0.73c0,-34.87 -20.92,-52.13 -51.02,-62.4 19.09,-9.91 36.7,-26.43 36.7,-57.27l0 -0.73c0,-17.25 -5.87,-31.2 -17.25,-42.58 -14.68,-14.69 -37.8,-22.76 -67.17,-22.76l-115.26 0 0 256.95zm44.41 -148.66l0 -68.28 64.97 0c29,0 45.16,12.48 45.16,32.67l0 0.73c0,23.5 -19.46,34.88 -48.46,34.88l-61.67 0zm0 108.65l0 -70.48 71.58 0c35.61,0 52.86,12.85 52.86,34.51l0 0.73c0,23.13 -18.72,35.24 -49.55,35.24l-74.89 0zm198.59 40.01l46.25 0 26.43 -62.04 121.5 0 26.07 62.04 47.71 0 -113.05 -258.79 -41.85 0 -113.06 258.79zm89.2 -102.05l44.05 -102.78 44.41 102.78 -88.46 0zm222.81 102.05l180.24 0 0 -41.11 -135.08 0 0 -215.84 -45.16 0 0 256.95zm205.2 0l46.25 0 26.43 -62.04 121.5 0 26.07 62.04 47.71 0 -113.05 -258.79 -41.85 0 -113.06 258.79zm89.2 -102.05l44.05 -102.78 44.41 102.78 -88.46 0zm328.9 106.45c45.52,0 81.86,-18.35 107.18,-40.01l0 -107.91 -109.38 0 0 39.27 65.7 0 0 48.09c-15.78,11.75 -37.8,19.45 -62.03,19.45 -52.5,0 -87.37,-38.91 -87.37,-91.77l0 -0.73c0,-49.19 35.98,-90.67 83.33,-90.67 32.67,0 52.12,10.65 71.95,27.53l28.63 -34.14c-26.43,-22.39 -53.96,-34.87 -98.74,-34.87 -77.46,0 -132.52,60.94 -132.52,132.88l0 0.74c0,74.88 52.86,132.14 133.25,132.14zm165.92 -4.4l192.34 0 0 -40.38 -147.19 0 0 -69.01 128.84 0 0 -40.37 -128.84 0 0 -66.81 145.36 0 0 -40.38 -190.51 0 0 256.95zm245.94 0l44.41 0 0 -182.8 141.69 182.8 37.81 0 0 -256.95 -44.41 0 0 177.66 -137.66 -177.66 -41.84 0 0 256.95zm379.92 3.67c53.96,0 91.77,-28.63 91.77,-76.72l0 -0.73c0,-42.58 -28.27,-62.04 -82.59,-75.25 -49.19,-11.75 -60.94,-20.56 -60.94,-40.38l0 -0.74c0,-16.88 15.42,-30.46 41.85,-30.46 23.49,0 46.62,9.18 69.74,26.43l24.23 -34.14c-26.06,-20.92 -55.79,-32.3 -93.24,-32.3 -51.02,0 -87.73,30.46 -87.73,74.51l0 0.74c0,47.35 30.84,63.5 85.53,76.72 47.72,11.01 58,20.92 58,39.27l0 0.74c0,19.45 -17.62,32.3 -45.52,32.3 -31.93,0 -56.53,-12.11 -81.12,-33.4l-27.17 32.3c30.84,27.53 67.91,41.11 107.19,41.11zm255.12 -3.67l45.15 0 0 -82.59 51.02 0c56.53,0 102.78,-30.1 102.78,-87.73l0 -0.74c0,-51.75 -37.81,-85.89 -97.64,-85.89l-101.31 0 0 256.95zm45.15 -123.34l0 -92.5 52.49 0c33.77,0 55.43,15.78 55.43,45.89l0 0.73c0,26.8 -21.29,45.88 -55.43,45.88l-52.49 0zm200.05 123.34l180.24 0 0 -41.11 -135.09 0 0 -215.84 -45.15 0 0 256.95zm205.2 0l46.25 0 26.43 -62.04 121.5 0 26.06 62.04 47.72 0 -113.06 -258.79 -41.84 0 -113.06 258.79zm89.2 -102.05l44.05 -102.78 44.41 102.78 -88.46 0zm26.43 -179.86l34.5 0 46.99 -35.61 -40.38 -17.62 -41.11 53.23zm281.9 285.58c53.96,0 91.77,-28.63 91.77,-76.72l0 -0.73c0,-42.58 -28.26,-62.04 -82.59,-75.25 -49.19,-11.75 -60.93,-20.56 -60.93,-40.38l0 -0.74c0,-16.88 15.41,-30.46 41.84,-30.46 23.49,0 46.62,9.18 69.75,26.43l24.22 -34.14c-26.06,-20.92 -55.79,-32.3 -93.23,-32.3 -51.03,0 -87.73,30.46 -87.73,74.51l0 0.74c0,47.35 30.83,63.5 85.52,76.72 47.72,11.01 58,20.92 58,39.27l0 0.74c0,19.45 -17.62,32.3 -45.51,32.3 -31.94,0 -56.54,-12.11 -81.13,-33.4l-27.16 32.3c30.83,27.53 67.91,41.11 107.18,41.11zm202.63 -3.67l45.52 0 0 -215.1 81.49 0 0 -41.85 -208.5 0 0 41.85 81.49 0 0 215.1zm177.3 0l45.14 0 0 -256.95 -45.14 0 0 256.95zm233.09 4.4c48.09,0 77.45,-17.61 104.25,-45.51l-29 -29.37c-22.03,20.56 -42.22,33.41 -73.78,33.41 -49.19,0 -84.8,-41.12 -84.8,-91.41l0 -0.73c0,-50.29 35.61,-90.67 84.8,-90.67 29.36,0 51.39,12.85 71.94,31.94l29 -33.41c-24.59,-23.49 -53.22,-40.01 -100.58,-40.01 -77.82,0 -132.51,59.84 -132.51,132.88l0 0.74c0,73.78 55.79,132.14 130.68,132.14zm129.57 -4.4l46.26 0 26.43 -62.04 121.5 0 26.06 62.04 47.72 0 -113.06 -258.79 -41.84 0 -113.07 258.79zm89.2 -102.05l44.05 -102.78 44.42 102.78 -88.47 0zm308.35 105.72c53.96,0 91.77,-28.63 91.77,-76.72l0 -0.73c0,-42.58 -28.27,-62.04 -82.59,-75.25 -49.19,-11.75 -60.94,-20.56 -60.94,-40.38l0 -0.74c0,-16.88 15.42,-30.46 41.85,-30.46 23.49,0 46.62,9.18 69.74,26.43l24.23 -34.14c-26.06,-20.92 -55.8,-32.3 -93.24,-32.3 -51.02,0 -87.73,30.46 -87.73,74.51l0 0.74c0,47.35 30.83,63.5 85.53,76.72 47.72,11.01 58,20.92 58,39.27l0 0.74c0,19.45 -17.62,32.3 -45.52,32.3 -31.94,0 -56.53,-12.11 -81.12,-33.4l-27.17 32.3c30.84,27.53 67.91,41.11 107.19,41.11z"/>
  <path class="fil0" d="M3689 2183.48c83.95,-112.87 80.98,-293.05 -5.14,-404.18 -95.64,-123.4 -276.91,-134.89 -383.67,-24.69 -57.14,59 -80.75,131.38 -86.67,211.19 -13.01,175.42 103.5,318.93 260.5,323.09l20.39 0c81.27,-2.78 145.76,-39.76 194.59,-105.41z"/>
  <path class="fil0" d="M3841.52 11.29l0 842.43 -802.1 -855.82 -670.6 0 0 2290.99 534.95 0c0,-423.08 0,-841.91 0,-1259.37 109.69,0 215.83,0 321.55,0 0,180.06 0,362.22 0,546.31 12.42,-9.64 16.96,-11.97 19.88,-15.61 184.87,-229.57 549.3,-177.85 708.35,43.75 138.31,192.68 143.51,403.99 78.17,623.06 -5.97,19.97 -15.13,39.01 -24.12,61.86l599.61 0 0 -2277.6 -765.69 0z"/>
 </g>
</svg>
